<svg id="svg" version="1.1" xmlns="http://www.w3.org/2000/svg" xmlns:xlink="http://www.w3.org/1999/xlink" width="400" height="108.33333333333333" viewBox="0, 0, 400,108.33333333333333"><g id="svgg"><path id="path0" d="M0.000 12.500 L 0.000 25.000 138.625 25.001 C 227.138 25.002,278.093 25.062,279.583 25.166 C 288.177 25.765,298.480 28.210,305.583 31.334 C 305.950 31.496,306.813 31.871,307.500 32.169 C 330.280 42.038,348.349 63.523,354.386 87.917 C 355.984 94.373,356.826 100.643,356.831 106.125 L 356.833 108.333 378.417 108.333 L 400.000 108.333 400.000 54.167 L 400.000 0.000 200.000 0.000 L 0.000 0.000 0.000 12.500 " stroke="none" fill="#fbfbfb" fill-rule="evenodd"></path><path id="path1" d="M0.000 66.750 L 0.000 108.333 178.417 108.333 L 356.835 108.333 356.743 105.875 C 356.693 104.523,356.583 102.854,356.498 102.167 C 356.413 101.479,356.261 100.017,356.162 98.917 C 355.968 96.781,355.895 96.286,355.269 92.917 C 354.507 88.807,353.041 83.228,352.249 81.417 C 352.128 81.142,351.941 80.579,351.832 80.167 C 351.723 79.754,351.576 79.342,351.505 79.250 C 351.435 79.158,351.284 78.783,351.170 78.417 C 351.056 78.050,350.825 77.450,350.656 77.083 C 350.488 76.717,350.111 75.854,349.820 75.167 C 348.094 71.094,345.028 65.491,342.637 62.042 C 340.789 59.376,340.155 58.514,338.517 56.442 C 334.028 50.765,328.187 45.197,322.219 40.907 C 319.379 38.865,318.703 38.420,316.323 37.021 C 315.641 36.621,314.902 36.179,314.680 36.041 C 313.689 35.421,309.906 33.485,308.083 32.664 C 307.442 32.375,306.617 32.004,306.250 31.839 C 305.282 31.404,302.557 30.333,302.419 30.333 C 302.354 30.333,302.064 30.228,301.775 30.099 C 301.298 29.886,300.049 29.473,297.000 28.523 C 293.512 27.436,287.612 26.242,282.917 25.673 C 278.933 25.191,271.915 25.167,137.392 25.167 L 0.000 25.167 0.000 66.750 " stroke="none" fill="#1484e4" fill-rule="evenodd"></path><path id="path2" d="M276.625 25.121 C 276.923 25.158,277.410 25.158,277.708 25.121 C 278.006 25.084,277.762 25.053,277.167 25.053 C 276.571 25.053,276.327 25.084,276.625 25.121 M279.711 25.286 C 279.964 25.325,280.339 25.324,280.544 25.284 C 280.749 25.244,280.542 25.213,280.083 25.214 C 279.625 25.216,279.457 25.248,279.711 25.286 M281.014 25.394 C 281.052 25.428,281.683 25.496,282.417 25.547 C 283.374 25.613,283.562 25.599,283.083 25.496 C 282.421 25.353,280.881 25.278,281.014 25.394 M287.514 26.227 C 287.552 26.260,287.921 26.332,288.333 26.386 C 288.834 26.452,288.973 26.436,288.750 26.338 C 288.432 26.197,287.369 26.101,287.514 26.227 M292.167 27.167 C 292.737 27.349,293.175 27.349,292.750 27.167 C 292.567 27.088,292.267 27.026,292.083 27.028 C 291.815 27.032,291.832 27.059,292.167 27.167 M294.917 27.833 C 295.100 27.912,295.362 27.977,295.500 27.977 C 295.658 27.977,295.627 27.924,295.417 27.833 C 295.233 27.755,294.971 27.690,294.833 27.690 C 294.676 27.690,294.707 27.743,294.917 27.833 M304.667 31.056 C 304.667 31.099,304.909 31.218,305.205 31.322 C 305.500 31.425,305.669 31.440,305.580 31.357 C 305.390 31.179,304.667 30.941,304.667 31.056 M307.000 32.083 C 307.229 32.214,307.492 32.322,307.583 32.322 C 307.675 32.322,307.563 32.214,307.333 32.083 C 307.104 31.952,306.842 31.845,306.750 31.845 C 306.658 31.845,306.771 31.952,307.000 32.083 M308.667 32.833 C 308.987 33.009,309.325 33.153,309.417 33.153 C 309.508 33.153,309.321 33.009,309.000 32.833 C 308.679 32.658,308.342 32.514,308.250 32.514 C 308.158 32.514,308.346 32.658,308.667 32.833 M312.000 34.408 C 312.000 34.454,312.225 34.608,312.500 34.750 C 312.775 34.892,313.000 34.971,313.000 34.925 C 313.000 34.879,312.775 34.726,312.500 34.583 C 312.225 34.441,312.000 34.362,312.000 34.408 M316.417 36.920 C 316.600 37.069,316.900 37.265,317.083 37.355 L 317.417 37.518 317.083 37.247 C 316.900 37.098,316.600 36.902,316.417 36.812 L 316.083 36.648 316.417 36.920 M321.333 40.061 C 321.333 40.106,321.558 40.304,321.833 40.500 C 322.108 40.696,322.333 40.819,322.333 40.773 C 322.333 40.727,322.108 40.529,321.833 40.333 C 321.558 40.138,321.333 40.015,321.333 40.061 M322.500 40.886 C 322.500 40.927,322.775 41.170,323.112 41.427 C 323.448 41.684,323.671 41.809,323.607 41.705 C 323.475 41.491,322.500 40.770,322.500 40.886 M324.500 42.387 C 324.500 42.428,325.044 42.899,325.708 43.433 C 326.373 43.966,326.823 44.286,326.708 44.143 C 326.464 43.837,324.500 42.276,324.500 42.387 M327.000 44.372 C 327.000 44.412,327.581 44.960,328.292 45.590 C 329.002 46.221,329.433 46.562,329.250 46.350 C 328.867 45.905,327.000 44.264,327.000 44.372 M332.333 49.417 C 333.844 50.929,335.117 52.167,335.163 52.167 C 335.209 52.167,334.010 50.929,332.500 49.417 C 330.990 47.904,329.716 46.667,329.670 46.667 C 329.625 46.667,330.823 47.904,332.333 49.417 M335.826 53.042 C 336.517 53.778,336.667 53.910,336.667 53.785 C 336.667 53.758,336.310 53.402,335.875 52.993 L 335.083 52.250 335.826 53.042 M343.479 63.083 C 343.569 63.267,343.764 63.567,343.914 63.750 L 344.185 64.083 344.021 63.750 C 343.931 63.567,343.736 63.267,343.586 63.083 L 343.315 62.750 343.479 63.083 M344.312 64.417 C 344.402 64.600,344.598 64.900,344.747 65.083 L 345.018 65.417 344.855 65.083 C 344.765 64.900,344.569 64.600,344.420 64.417 L 344.148 64.083 344.312 64.417 M345.917 67.167 C 346.059 67.442,346.213 67.667,346.259 67.667 C 346.304 67.667,346.226 67.442,346.083 67.167 C 345.941 66.892,345.787 66.667,345.741 66.667 C 345.696 66.667,345.774 66.892,345.917 67.167 M346.917 69.000 C 347.059 69.275,347.213 69.500,347.259 69.500 C 347.304 69.500,347.226 69.275,347.083 69.000 C 346.941 68.725,346.787 68.500,346.741 68.500 C 346.696 68.500,346.774 68.725,346.917 69.000 M349.181 73.417 C 349.181 73.508,349.324 73.846,349.500 74.167 C 349.676 74.487,349.819 74.675,349.819 74.583 C 349.819 74.492,349.676 74.154,349.500 73.833 C 349.324 73.512,349.181 73.325,349.181 73.417 M351.929 80.167 C 351.990 80.396,352.110 80.696,352.195 80.833 C 352.302 81.007,352.315 80.956,352.238 80.667 C 352.176 80.438,352.057 80.137,351.972 80.000 C 351.865 79.826,351.851 79.877,351.929 80.167 M352.687 82.333 C 352.684 82.471,352.785 82.808,352.911 83.083 C 353.205 83.727,353.210 83.428,352.917 82.667 C 352.793 82.346,352.690 82.196,352.687 82.333 M353.604 85.417 C 353.663 85.692,353.778 86.029,353.858 86.167 C 353.952 86.327,353.966 86.237,353.896 85.917 C 353.837 85.642,353.722 85.304,353.642 85.167 C 353.548 85.007,353.534 85.097,353.604 85.417 M354.437 88.500 C 354.496 88.821,354.609 89.233,354.689 89.417 C 354.789 89.645,354.802 89.567,354.729 89.167 C 354.671 88.846,354.558 88.433,354.478 88.250 C 354.377 88.021,354.365 88.100,354.437 88.500 M355.202 91.917 C 355.200 92.100,355.295 92.625,355.413 93.083 C 355.531 93.542,355.629 93.767,355.631 93.583 C 355.633 93.400,355.538 92.875,355.420 92.417 C 355.303 91.958,355.205 91.733,355.202 91.917 M356.176 98.014 C 356.182 98.327,356.252 98.883,356.333 99.250 C 356.445 99.762,356.458 99.647,356.386 98.750 C 356.286 97.508,356.160 97.066,356.176 98.014 M356.717 104.000 C 356.717 104.504,356.748 104.710,356.786 104.458 C 356.824 104.206,356.824 103.794,356.786 103.542 C 356.748 103.290,356.717 103.496,356.717 104.000 " stroke="none" fill="#6db2ef" fill-rule="evenodd"></path><path id="path3" d="M274.625 25.121 C 274.923 25.158,275.410 25.158,275.708 25.121 C 276.006 25.084,275.762 25.053,275.167 25.053 C 274.571 25.053,274.327 25.084,274.625 25.121 M278.211 25.286 C 278.464 25.325,278.839 25.324,279.044 25.284 C 279.249 25.244,279.042 25.213,278.583 25.214 C 278.125 25.216,277.957 25.248,278.211 25.286 M356.372 100.333 C 356.372 100.654,356.406 100.785,356.448 100.625 C 356.490 100.465,356.490 100.202,356.448 100.042 C 356.406 99.881,356.372 100.013,356.372 100.333 M356.705 105.333 C 356.705 105.654,356.740 105.785,356.782 105.625 C 356.823 105.465,356.823 105.202,356.782 105.042 C 356.740 104.881,356.705 105.013,356.705 105.333 " stroke="none" fill="#42a1ec" fill-rule="evenodd"></path><path id="path4" d="M68.555 25.125 C 106.307 25.148,168.032 25.148,205.722 25.125 C 243.412 25.102,212.525 25.083,137.083 25.083 C 61.642 25.083,30.804 25.102,68.555 25.125 M276.542 25.286 C 276.794 25.324,277.206 25.324,277.458 25.286 C 277.710 25.248,277.504 25.217,277.000 25.217 C 276.496 25.217,276.290 25.248,276.542 25.286 M331.000 48.250 C 331.311 48.571,331.603 48.833,331.649 48.833 C 331.695 48.833,331.478 48.571,331.167 48.250 C 330.856 47.929,330.564 47.667,330.518 47.667 C 330.472 47.667,330.689 47.929,331.000 48.250 " stroke="none" fill="#2994e4" fill-rule="evenodd"></path></g></svg>